<svg width="200" height="27" viewBox="0 0 200 27" fill="none" xmlns="http://www.w3.org/2000/svg">
<path d="M32.113 0.373692V8.60716H35.079V3.09108H46.0987V0.373692H32.113ZM35.0806 17.0361V11.2135H32.1146V19.7941H46.0721V17.0361H35.0806ZM35.0806 7.91452H32.1146V8.62123H35.0806V7.91452Z" fill="white"/>
<path d="M44.6727 8.62119H35.0805V11.2135H44.6727V8.62119Z" fill="white"/>
<path d="M55.8581 12.752L60.9864 5.84909H57.6593L54.0554 10.6585L50.439 5.84909H47.0977L52.2261 12.752L46.8476 19.7941H50.2029L54.0569 14.7908L57.8828 19.7941H61.2382L55.8581 12.752Z" fill="white"/>
<path d="M75.4161 7.58151C74.0856 6.18216 72.436 5.48796 70.4535 5.48796V5.47389C68.2912 5.47389 66.6276 6.30568 65.4628 7.95519V5.84914H62.5515V25.6151H65.4628V17.6724C66.6276 19.3219 68.2912 20.1537 70.4535 20.1537C72.436 20.1537 74.0856 19.447 75.4161 18.0602C76.7467 16.6608 77.3986 14.9144 77.3986 12.8208C77.3986 10.7148 76.7467 8.96835 75.4161 7.58151ZM73.2538 16.2043C72.3938 17.0908 71.2994 17.5348 69.9688 17.5348L69.9829 17.5489C68.6946 17.5489 67.5985 17.1049 66.712 16.2184C65.8114 15.3178 65.3674 14.1811 65.3674 12.8224C65.3674 11.4637 65.8114 10.3411 66.712 9.4546C67.5985 8.55401 68.6805 8.10998 69.9688 8.10998C71.3134 8.10998 72.4079 8.55401 73.2678 9.44053C74.1137 10.3145 74.5296 11.4371 74.5296 12.8083C74.5296 14.167 74.0996 15.3037 73.2538 16.2043Z" fill="white"/>
<path d="M93.0213 12.5582C93.0213 10.535 92.3834 8.85732 91.1091 7.5127C89.8333 6.16808 88.1009 5.50202 85.8979 5.50202C83.7778 5.50202 82.0439 6.20873 80.7133 7.60964C79.3968 8.99647 78.7308 10.7429 78.7308 12.849C78.7308 15.0254 79.4093 16.8 80.7962 18.1446C82.183 19.5033 83.9701 20.1819 86.1747 20.1819L86.1465 20.1537C87.8101 20.1537 89.2235 19.766 90.3743 18.9889C91.525 18.2118 92.3427 17.2831 92.8415 16.1886L90.1945 15.3991C89.4737 16.9094 88.1431 17.6443 86.2294 17.6443C84.8566 17.6443 83.7622 17.2831 82.9444 16.5639C82.1408 15.8431 81.6968 14.9003 81.5998 13.723H92.9244C92.9932 13.3071 93.0213 12.9193 93.0213 12.5582ZM81.5983 11.7967C81.7093 10.7429 82.1533 9.85641 82.9288 9.12156C83.7184 8.3867 84.7034 8.0271 85.9089 8.0271C87.1566 8.0271 88.1541 8.3742 88.903 9.08091C89.6519 9.78761 90.0678 10.6882 90.1648 11.7983H81.5983V11.7967Z" fill="white"/>
<path d="M95.1414 5.84909V19.7941H98.0527V5.84909H95.1414Z" fill="white"/>
<path d="M122.1 17.0079V0.373692H119.063V19.7941H132.287V17.0079H122.1Z" fill="white"/>
<path d="M136.917 0.526904C136.571 0.179804 136.127 0 135.615 0C135.102 0 134.672 0.179804 134.312 0.526904C133.965 0.874004 133.785 1.30241 133.785 1.77459C133.785 2.28742 133.965 2.71739 134.312 3.06292C134.673 3.39595 135.102 3.57576 135.615 3.57576C136.127 3.57576 136.571 3.39595 136.917 3.06292C137.264 2.71582 137.444 2.28742 137.444 1.77459C137.444 1.30241 137.264 0.874004 136.917 0.526904ZM134.145 5.84911V19.7941H137.028V5.84911H134.145Z" fill="white"/>
<path d="M150.308 13.3071C149.656 12.7395 148.77 12.2955 147.619 11.9484L143.904 10.8805C142.907 10.5756 142.406 10.105 142.406 9.49366C142.406 9.04962 142.642 8.66187 143.099 8.31477C143.557 7.98174 144.139 7.80194 144.845 7.80194C145.663 7.80194 146.384 7.99581 146.994 8.36949C147.603 8.75724 148.048 9.21535 148.338 9.76884L150.903 9.00584C150.487 7.96611 149.738 7.12025 148.671 6.46982C147.605 5.8194 146.329 5.48637 144.874 5.48637C143.39 5.48637 142.13 5.8882 141.09 6.67777C140.05 7.48142 139.537 8.42422 139.537 9.53275C139.537 11.251 140.646 12.444 142.864 13.1085L146.622 14.217C147.26 14.4109 147.716 14.6329 147.994 14.869C148.285 15.1192 148.424 15.4506 148.424 15.8665C148.424 16.3934 148.148 16.85 147.607 17.2112C147.066 17.5723 146.359 17.7662 145.501 17.7662C144.53 17.7662 143.685 17.5301 142.95 17.0173C142.216 16.5185 141.717 15.8947 141.467 15.1458L138.82 15.9088C139.193 17.0876 139.97 18.0992 141.19 18.917C142.41 19.7487 143.809 20.1646 145.39 20.1646L145.458 20.1506C147.15 20.1506 148.535 19.7347 149.631 18.8888C150.74 18.057 151.295 17.0032 151.295 15.7555C151.292 14.6798 150.959 13.8746 150.308 13.3071Z" fill="white"/>
<path d="M161.134 16.9532C160.524 17.258 159.915 17.4113 159.305 17.4113C157.974 17.4113 157.308 16.6905 157.308 15.263V8.41481H161.744V5.85065H157.308V1.19138H154.425V5.84909H151.875V8.41325H154.425V15.2614C154.425 16.7452 154.786 17.9085 155.506 18.7403C156.226 19.5861 157.321 20.002 158.776 20.002C159.774 20.002 160.8 19.7941 161.853 19.336L161.134 16.9532Z" fill="white"/>
<path d="M166.692 0.526904C166.345 0.179804 165.917 0 165.39 0C164.877 0 164.447 0.179804 164.102 0.526904C163.741 0.874004 163.575 1.30241 163.575 1.77459C163.575 2.28742 163.741 2.71739 164.102 3.06292C164.449 3.39595 164.877 3.57576 165.39 3.57576C165.917 3.57576 166.347 3.39595 166.692 3.06292C167.054 2.71582 167.219 2.28742 167.219 1.77459C167.219 1.30241 167.052 0.874004 166.692 0.526904ZM163.92 5.84911V19.7941H166.803V5.84911H163.92Z" fill="white"/>
<path d="M181.746 7.09678C180.775 5.98825 179.418 5.44727 177.643 5.44727V5.47542C175.592 5.47542 173.997 6.29313 172.846 7.9145V5.8491H169.935V19.7941H172.846V12.863C172.846 11.4496 173.208 10.327 173.941 9.46707C174.676 8.62121 175.647 8.20531 176.866 8.20531C177.989 8.20531 178.849 8.55241 179.43 9.24505C180.012 9.93769 180.29 10.8946 180.29 12.1282V19.78H183.173V11.6013C183.173 9.68909 182.701 8.1928 181.746 7.09678Z" fill="white"/>
<path d="M197.09 5.84913V7.80352C195.925 6.25095 194.276 5.47545 192.184 5.47545C190.161 5.47545 188.483 6.14151 187.193 7.47206C185.891 8.80261 185.239 10.4943 185.239 12.5597C185.239 14.5829 185.891 16.2746 187.207 17.6193C188.51 18.978 190.187 19.6565 192.198 19.6565C194.292 19.6565 195.941 18.8669 197.104 17.3003V19.3376C197.09 20.5712 196.717 21.5828 195.996 22.3739C195.289 23.1635 194.278 23.5528 193.002 23.5528C191.075 23.5669 189.689 22.8602 188.843 21.4452L186.293 22.3739C187.637 24.7989 189.854 26.02 192.945 26.02C195.053 26.02 196.757 25.3962 198.06 24.1485C199.362 22.9008 200 21.3076 200 19.3391V5.90541L197.09 5.84913ZM195.857 15.8025C194.984 16.6483 193.916 17.0642 192.641 17.0642H192.612C191.31 17.0642 190.214 16.6483 189.368 15.8025C188.508 14.9707 188.078 13.9028 188.078 12.6004C188.078 11.298 188.494 10.2442 189.354 9.42645C190.2 8.59466 191.294 8.17876 192.611 8.17876C193.901 8.17876 194.981 8.59466 195.855 9.44052C196.715 10.2723 197.145 11.3261 197.145 12.6004C197.145 13.8746 196.717 14.9425 195.857 15.8025Z" fill="white"/>
<path d="M110.856 8.41325V5.84909H107.409V1.19138H104.526V16.9516V19.7925H105.081H107.312C107.34 19.8066 107.381 19.8206 107.409 19.8206V19.7925H111.794V16.9516H107.409V8.41325H110.856Z" fill="white"/>
<path d="M102.82 5.86319H95.1414V8.77445H102.82V5.86319Z" fill="white"/>
<path d="M5.18383 0.984384L2.71069 3.45752L17.4666 18.2134L19.9398 15.7403L5.18383 0.984384Z" fill="white"/>
<path d="M10.5113 7.9382L1.68897 16.7606L4.16211 19.2337L12.9845 10.4113L10.5113 7.9382Z" fill="white"/>
<path d="M11.1572 7.73471H0V11.2323H11.1572V7.73471Z" fill="white"/>
<path d="M13.2117 9.78916H9.71413V20.9464H13.2117V9.78916Z" fill="white"/>
<path d="M10.3912 3.77903H14.4188C15.7697 3.77903 17.0642 3.24274 18.0195 2.28744L18.6371 2.90502C17.6818 3.86033 17.1455 5.15492 17.1455 6.5058V10.5334L20.9105 14.2983V0.0125237H6.62466L10.3912 3.77903Z" fill="white"/>
</svg>
