<svg width="32" height="32" viewBox="0 0 32 32" fill="none" xmlns="http://www.w3.org/2000/svg">
<rect width="32" height="32" rx="7" fill="#105B48"/>
<g transform="translate(5.544 5.533)">
<path d="M5.18383 0.971902L2.71069 3.44504L17.4666 18.201L19.9398 15.7278L5.18383 0.971902Z" fill="white"/>
<path d="M10.5113 7.92572L1.68897 16.7481L4.16211 19.2212L12.9845 10.3989L10.5113 7.92572Z" fill="white"/>
<path d="M11.1572 7.72223H0V11.2198H11.1572V7.72223Z" fill="white"/>
<path d="M13.2117 9.77668H9.71413V20.9339H13.2117V9.77668Z" fill="white"/>
<path d="M10.3912 3.76655H14.4188C15.7697 3.76655 17.0642 3.23026 18.0195 2.27495L18.6371 2.89254C17.6818 3.84785 17.1455 5.14244 17.1455 6.49331V10.5209L20.9105 14.2859V4.19617e-05H6.62466L10.3912 3.76655Z" fill="white"/>
</g>
</svg>
